<svg width="209" height="297" viewBox="0 0 209 297" fill="none" xmlns="http://www.w3.org/2000/svg">
<path d="M177.273 45.276C191.677 77.9531 189.436 121.367 196.391 148.37C199.882 161.959 207.622 171.736 208.786 188.671C212.831 246.664 158.738 274.336 114.48 296.421C83.9848 280.505 40.4541 256.819 26.3706 223.822C9.61015 184.539 25.003 140.601 66.1768 125.878C81.3077 120.465 104.295 118.952 120.445 111.911C118.059 114.471 118.553 114.675 121.987 115.024C120.037 116.13 115.673 117.265 115.265 117.614C113.054 119.447 113.839 125.558 111.657 131.319C104.674 149.68 71.7345 161.523 62.5686 186.605C52.5007 214.19 64.1108 241.804 81.1623 263.599C57.9129 224.52 51.8605 184.161 95.8859 157.915C41.036 221.203 103.451 225.655 123.791 269.011C121.492 253.676 111.628 240.931 105.954 226.906C101.88 216.838 99.785 205.955 95.624 195.888C107.38 214.714 128.476 224.957 142.646 241.368C149.223 248.962 156.323 261.067 145.236 239.826C140.755 231.271 134.441 223.502 129.727 215.034C124.111 204.879 120.154 193.763 113.694 184.016C130.251 202.115 154.111 211.542 176.749 219.661C157.225 205.053 149.368 183.23 136.943 163.327L137.205 162.047C149.63 177.643 170.551 184.016 188.621 190.737C150.183 168.128 179.135 148.574 171.57 91.7747C174.363 90.1743 171.628 93.4042 173.898 92.8223C179.048 84.7621 186.468 85.5186 185.537 74.9851C185.508 74.5778 184.548 74.8687 184.489 74.4614C184.286 72.5991 185.013 72.5118 185.013 72.3954C184.635 70.0967 181.492 63.084 181.9 59.4759C180.299 55.8095 175.789 44.9269 177.244 45.276H177.273Z" fill="#12151F"/>
<path d="M117.855 0.843364C118.32 2.53105 126.817 2.79293 130.513 3.95685C136.652 5.84823 137.001 5.96462 139.038 12.4826C133.248 13.8211 141.744 20.2227 131.036 23.0743L112.443 17.8948C83.2864 15.8289 62.5685 29.3304 51.715 56.3915C48.9507 63.2878 47.6121 72.7738 47.0593 73.443C46.7974 73.7631 41.036 77.4294 39.8139 77.3131C29.6296 21.212 64.6345 -5.09263 117.855 0.814271V0.843364Z" fill="#093247"/>
<path d="M177.273 45.2759C175.818 44.9559 180.328 55.8385 181.929 59.4758C181.521 63.0839 184.664 70.0966 185.042 72.3953C185.042 72.5117 184.315 72.599 184.519 74.4613C184.577 74.8687 185.508 74.5777 185.566 74.985C186.497 85.5185 179.106 84.762 173.927 92.8222C171.657 93.4332 174.392 90.2033 171.599 91.7746C169.824 78.3604 166.158 65.0044 159.203 53.2779C128.068 0.930506 61.5502 8.6124 48.1069 71.3769C48.6016 72.3371 52.297 70.1839 53.2864 70.0966L50.9585 72.1625C58.0294 70.3294 63.9654 73.5592 63.6162 81.212L62.5686 81.4739C62.8014 68.1761 46.5065 73.1228 40.3377 79.408C39.6685 78.5932 39.9595 78.0695 39.814 77.342C41.007 77.4584 46.7975 73.792 47.0594 73.472C47.6122 72.7736 48.9507 63.3167 51.7151 56.4205C62.5686 29.3302 83.2865 15.8578 112.443 17.9238L131.036 23.1032C141.774 20.2516 133.277 13.85 139.038 12.5115C137.001 5.99357 136.652 5.87718 130.513 3.98581C126.817 2.85098 118.321 2.56 117.855 0.872314C146.429 4.044 165.809 19.2623 177.273 45.305V45.2759Z" fill="#091F2D"/>
<path d="M66.1765 122.794C67.5441 120.116 73.7129 114.064 71.5887 114.006C63.5285 118.865 55.1192 123.114 46.5353 126.925C45.8369 127.246 41.8505 128.031 39.5518 128.991C32.9465 131.756 -0.574474 150.349 0.00748665 133.647C9.69714 143.57 31.899 130.708 39.5518 121.775L36.7001 128.235C37.6313 129.835 66.6129 113.337 70.5412 113.511C55.6139 103.822 62.4228 87.2939 62.5392 81.4743L63.5867 81.2124C63.9359 73.5596 57.9999 70.3297 50.9291 72.1629L53.2569 70.0969C74.8186 68.0601 65.7691 83.2202 65.1289 87.4103C61.899 109.263 77.0009 111.387 77.0009 113.249C74.062 117.09 71.2977 121.717 66.1474 122.823L66.1765 122.794Z" fill="#1D1A15"/>
<path d="M66.1768 122.794C66.1768 122.794 66.235 123.172 66.1768 123.317C59.9207 124.831 52.7626 127.304 46.5356 126.926C55.1196 123.114 63.558 118.865 71.5891 114.006C73.7132 114.064 67.5153 120.117 66.1768 122.794Z" fill="#F78C1F"/>
<path d="M62.5688 81.4455C62.4815 87.2651 55.6435 103.793 70.5708 113.482C66.6425 113.308 37.6609 129.806 36.7297 128.206L39.5814 121.746C31.9286 130.708 9.72676 143.541 0.0371094 133.618C0.240796 127.566 16.8558 113.948 21.7443 107.517C26.0217 101.901 36.7298 83.0458 40.3379 79.3504C46.5067 73.0652 62.7725 68.1476 62.5688 81.4163V81.4455Z" fill="#F78C1F"/>
<path d="M51.4539 84.0352L52.7342 84.2971C46.5073 91.4261 38.4471 107.605 36.2065 98.2641C40.8622 93.0265 44.9651 87.2069 51.4539 84.0643V84.0352Z" fill="#1D1A15"/>
<path d="M30.2692 103.152C34.8376 102.949 21.7144 122.91 19.9394 124.336C12.5776 126.955 25.9627 109.321 30.2692 103.152Z" fill="#1D1A15"/>
<path d="M115.264 117.643C115.672 117.293 120.036 116.159 121.986 115.053C135.778 107.225 140.87 101.464 147.301 86.624C149.396 107.866 122.102 138.244 107.262 152.269L106.477 151.484C115.992 142.841 118.058 129.718 115.264 117.643Z" fill="#9D8587"/>
<path d="M147.301 86.624C140.87 101.464 135.749 107.225 121.986 115.053C118.552 114.733 118.057 114.5 120.443 111.939C122.189 110.077 132.752 106.265 141.103 95.1497C146.37 88.1371 146.835 81.7355 147.301 86.624Z" fill="#091F2D"/>
<path d="M171.598 91.8036C179.164 148.603 150.211 168.157 188.65 190.766C170.58 184.044 149.658 177.672 137.233 162.075L136.972 163.356C149.396 183.259 157.224 205.082 176.778 219.69C154.139 211.571 130.308 202.114 113.722 184.044C120.182 193.763 124.11 204.908 129.755 215.063C134.469 223.53 140.783 231.3 145.265 239.855C156.351 261.096 149.251 249.02 142.675 241.397C128.504 224.985 107.408 214.743 95.6524 195.916C99.8134 205.955 101.938 216.867 105.982 226.935C111.656 240.989 121.491 253.705 123.819 269.04C103.48 225.655 41.0644 221.203 95.9143 157.943C51.8889 184.19 57.9122 224.549 81.1906 263.628C64.1101 241.804 52.5 214.19 62.597 186.634C71.7629 161.552 104.702 149.709 111.685 131.348C113.868 125.586 113.082 119.476 115.294 117.643C118.087 129.747 116.021 142.842 106.506 151.484L107.292 152.269C122.161 138.273 149.426 107.895 147.331 86.6241C146.836 81.7357 146.399 88.1372 141.133 95.1499C132.781 106.265 122.19 110.077 120.473 111.939C104.324 118.981 81.3652 120.494 66.2051 125.907C64.6338 124.044 65.6232 124.714 66.2051 123.317C66.2633 123.171 66.1469 122.939 66.2051 122.793C71.3555 121.687 74.1198 117.09 77.0587 113.22C77.0587 111.357 61.9568 109.233 65.1867 87.3807C65.7978 83.1906 74.8473 68.0305 53.3147 70.0674C52.3545 70.1547 48.6299 72.337 48.1353 71.3477C61.6077 8.61227 128.126 0.901289 159.232 53.2487C166.186 64.9752 169.852 78.3312 171.627 91.7454L171.598 91.8036Z" fill="#F3E1CA"/>
<path d="M115.003 40.6199L115.789 40.8818C106.245 53.7431 93.3251 57.4385 105.459 56.391C99.2029 65.6151 86.7781 64.393 79.0962 72.424C82.6171 66.6335 82.4716 53.9468 88.6695 50.455C93.6161 47.6616 104.499 50.5714 115.032 40.649L115.003 40.6199Z" fill="#12151F"/>
<path d="M89.1646 55.1106L89.4265 55.3725C87.6515 65.3531 85.7892 63.4908 89.1646 55.1106Z" fill="#8C898A"/>
</svg>
